<?xml version="1.0" encoding="UTF-8" standalone="no"?>
<svg
   width="900"
   height="900"
   viewBox="0 0 900 900"
   version="1.1"
   xml:space="preserve"
   id="SVGRoot"
   xmlns="http://www.w3.org/2000/svg"
   xmlns:svg="http://www.w3.org/2000/svg"><defs
   id="defs2"><linearGradient
     id="swatch114"><stop
       style="stop-color:#000000;stop-opacity:1;"
       offset="0"
       id="stop114" /></linearGradient><linearGradient
     id="swatch113"><stop
       style="stop-color:#000000;stop-opacity:1;"
       offset="0"
       id="stop113" /></linearGradient><filter
     style="color-interpolation-filters:sRGB"
     id="filter95"
     x="-0.003000498"
     y="-0.6590193"
     width="1.006001"
     height="2.3180386"><feGaussianBlur
       stdDeviation="0.91756515"
       id="feGaussianBlur95" /></filter><filter
     style="color-interpolation-filters:sRGB"
     id="filter96"
     x="-0.003000498"
     y="-0.6590193"
     width="1.006001"
     height="2.3180386"><feGaussianBlur
       stdDeviation="0.91756515"
       id="feGaussianBlur96" /></filter><filter
     style="color-interpolation-filters:sRGB"
     id="filter97"
     x="-0.003000498"
     y="-0.6590193"
     width="1.006001"
     height="2.3180386"><feGaussianBlur
       stdDeviation="0.91756515"
       id="feGaussianBlur97" /></filter><filter
     style="color-interpolation-filters:sRGB"
     id="filter98"
     x="-0.003000498"
     y="-0.6590193"
     width="1.006001"
     height="2.3180386"><feGaussianBlur
       stdDeviation="0.91756515"
       id="feGaussianBlur98" /></filter><filter
     style="color-interpolation-filters:sRGB"
     id="filter99"
     x="-0.003000498"
     y="-0.6590193"
     width="1.006001"
     height="2.3180386"><feGaussianBlur
       stdDeviation="0.91756515"
       id="feGaussianBlur99" /></filter><filter
     style="color-interpolation-filters:sRGB"
     id="filter100"
     x="-0.003000498"
     y="-0.6590193"
     width="1.006001"
     height="2.3180386"><feGaussianBlur
       stdDeviation="0.91756515"
       id="feGaussianBlur100" /></filter><filter
     style="color-interpolation-filters:sRGB"
     id="filter101"
     x="-0.003000498"
     y="-0.6590193"
     width="1.006001"
     height="2.3180386"><feGaussianBlur
       stdDeviation="0.91756515"
       id="feGaussianBlur101" /></filter><filter
     style="color-interpolation-filters:sRGB"
     id="filter102"
     x="-0.003000498"
     y="-0.6590193"
     width="1.006001"
     height="2.3180386"><feGaussianBlur
       stdDeviation="0.91756515"
       id="feGaussianBlur102" /></filter><filter
     style="color-interpolation-filters:sRGB"
     id="filter103"
     x="-0.003000498"
     y="-0.6590193"
     width="1.006001"
     height="2.3180386"><feGaussianBlur
       stdDeviation="0.91756515"
       id="feGaussianBlur103" /></filter><filter
     style="color-interpolation-filters:sRGB"
     id="filter104"
     x="-0.003000498"
     y="-0.6590193"
     width="1.006001"
     height="2.3180386"><feGaussianBlur
       stdDeviation="0.91756515"
       id="feGaussianBlur104" /></filter><filter
     style="color-interpolation-filters:sRGB"
     id="filter105"
     x="-0.003000498"
     y="-0.6590193"
     width="1.006001"
     height="2.3180386"><feGaussianBlur
       stdDeviation="0.91756515"
       id="feGaussianBlur105" /></filter><filter
     style="color-interpolation-filters:sRGB"
     id="filter106"
     x="-0.003000498"
     y="-0.6590193"
     width="1.006001"
     height="2.3180386"><feGaussianBlur
       stdDeviation="0.91756515"
       id="feGaussianBlur106" /></filter></defs>
  
 <style
   type="text/css"
   id="style1">
g.prefab path {
  vector-effect:non-scaling-stroke;
  -inkscape-stroke:hairline;
  fill: none;
  fill-opacity: 1;
  stroke-opacity: 1;
  stroke: #00349c;
}
 </style>
 
<rect
   style="opacity:0.271877;fill:#000000;fill-opacity:0.15;stroke-width:0.995408;filter:url(#filter95)"
   id="rect16"
   width="733.9303"
   height="3.3415658"
   x="106.1431"
   y="155.04642"
   transform="matrix(1.2172998,0,0,1.2172998,-126.10851,-114.36299)" /><rect
   style="opacity:0.271877;fill:#000000;fill-opacity:0.15;stroke-width:0.995408;filter:url(#filter96)"
   id="rect18"
   width="733.9303"
   height="3.3415658"
   x="106.16049"
   y="277.39713"
   transform="matrix(1.2172998,0,0,1.2172998,-126.10851,-114.36299)" /><rect
   style="opacity:0.271877;fill:#000000;fill-opacity:0.15;stroke-width:0.995408;filter:url(#filter97)"
   id="rect20"
   width="733.9303"
   height="3.3415658"
   x="106.1779"
   y="399.71304"
   transform="matrix(1.2172998,0,0,1.2172998,-126.10851,-114.36299)" /><rect
   style="opacity:0.271877;fill:#000000;fill-opacity:0.15;stroke-width:0.995408;filter:url(#filter98)"
   id="rect22"
   width="733.9303"
   height="3.3415658"
   x="106.1953"
   y="522.06372"
   transform="matrix(1.2172998,0,0,1.2172998,-126.10851,-114.36299)" /><rect
   style="opacity:0.271877;fill:#000000;fill-opacity:0.15;stroke-width:0.995408;filter:url(#filter99)"
   id="rect24"
   width="733.9303"
   height="3.3415658"
   x="106.07349"
   y="644.34485"
   transform="matrix(1.2172998,0,0,1.2172998,-126.10851,-114.36299)" /><rect
   style="opacity:0.271877;fill:#000000;fill-opacity:0.15;stroke-width:0.995408;filter:url(#filter100)"
   id="rect26"
   width="733.9303"
   height="3.3415658"
   x="106.0909"
   y="766.69556"
   transform="matrix(1.2172998,0,0,1.2172998,-126.10851,-114.36299)" /><rect
   style="opacity:0.271877;fill:#000000;fill-opacity:0.15;stroke-width:0.995408;filter:url(#filter101)"
   id="rect41"
   width="733.9303"
   height="3.3415658"
   x="-829.49823"
   y="165.6042"
   transform="matrix(0,-1.2172998,1.2172998,0,-126.10851,-114.36299)" /><rect
   style="opacity:0.271877;fill:#000000;fill-opacity:0.15;stroke-width:0.995408;filter:url(#filter102)"
   id="rect43"
   width="733.9303"
   height="3.3415658"
   x="-829.48083"
   y="287.9549"
   transform="matrix(0,-1.2172998,1.2172998,0,-126.10851,-114.36299)" /><rect
   style="opacity:0.271877;fill:#000000;fill-opacity:0.15;stroke-width:0.995408;filter:url(#filter103)"
   id="rect45"
   width="733.9303"
   height="3.3415658"
   x="-829.46338"
   y="410.27081"
   transform="matrix(0,-1.2172998,1.2172998,0,-126.10851,-114.36299)" /><rect
   style="opacity:0.271877;fill:#000000;fill-opacity:0.15;stroke-width:0.995408;filter:url(#filter104)"
   id="rect47"
   width="733.9303"
   height="3.3415658"
   x="-829.44598"
   y="532.62152"
   transform="matrix(0,-1.2172998,1.2172998,0,-126.10851,-114.36299)" /><rect
   style="opacity:0.271877;fill:#000000;fill-opacity:0.15;stroke-width:0.995408;filter:url(#filter105)"
   id="rect49"
   width="733.9303"
   height="3.3415658"
   x="-829.56781"
   y="654.90265"
   transform="matrix(0,-1.2172998,1.2172998,0,-126.10851,-114.36299)" /><rect
   style="opacity:0.271877;fill:#000000;fill-opacity:0.15;stroke-width:0.995408;filter:url(#filter106)"
   id="rect51"
   width="733.9303"
   height="3.3415658"
   x="-829.55042"
   y="777.25336"
   transform="matrix(0,-1.2172998,1.2172998,0,-126.10851,-114.36299)" /><path
   style="fill:#5e001f;fill-opacity:1;stroke:#5e001f;stroke-width:10;stroke-linecap:butt;stroke-linejoin:round;stroke-dasharray:none;stroke-dashoffset:0;stroke-opacity:1;paint-order:normal"
   d="m 416.98921,773.09869 -179.95056,-547.25881 -59.82131,21.59957 58.44491,-121.82084 127.52572,60.47991 -59.51522,17.86575 182.01062,569.07589 z"
   id="path116" /><path
   style="fill:#00e1d9;fill-opacity:1;stroke:#00e1d9;stroke-width:10;stroke-linecap:butt;stroke-linejoin:round;stroke-dasharray:none;stroke-dashoffset:0;stroke-opacity:1;paint-order:normal"
   d="m 488.87351,773.01067 179.95337,-547.84952 59.82131,21.59957 -58.44491,-121.82084 -127.52572,60.47991 59.51522,17.86575 -182.01062,569.29464 z"
   id="path4" /><path
   style="opacity:1;fill:#5e001f;fill-opacity:1;stroke:none;stroke-width:10;stroke-linecap:butt;stroke-linejoin:round;stroke-dasharray:none;stroke-dashoffset:0;stroke-opacity:1;paint-order:normal"
   d="m 413.06322,778.26218 -2.40745,-8.41435 79.3392,-0.16849 2.46707,8.37857 z"
   id="path117" /><path
   style="opacity:1;fill:#00e1d9;fill-opacity:1;stroke:none;stroke-width:10.8776;stroke-linecap:butt;stroke-linejoin:round;stroke-dasharray:none;stroke-dashoffset:0;stroke-opacity:1;paint-order:normal"
   d="m 492.46864,778.05633 3.13155,-9.675 -78.6657,-2.04731 -3.87892,11.93475 z"
   id="path114" /></svg>
